<?xml version="1.0" encoding="UTF-8"?>
<svg id="Laag_1" xmlns="http://www.w3.org/2000/svg" version="1.1" viewBox="0 0 90 90.2">
  <!-- Generator: Adobe Illustrator 29.7.1, SVG Export Plug-In . SVG Version: 2.1.1 Build 8)  -->
  <defs>
    <style>
      .st0 {
        fill: #fff;
      }
    </style>
  </defs>
  <g>
    <line class="st0" x1="6" y1="45.4" x2="83.8" y2="45.4"/>
    <path class="st0" d="M6,53.6c.7,0,1.4,0,2.1,0h5.7c2.8,0,5.6,0,8.3,0h10.2c3.7,0,7.5,0,11.2,0h11.3c3.5,0,7,0,10.5,0h8.9c2.1,0,4.3,0,6.4,0s2,0,3,0,0,0,.1,0c1.5,0,3.2-.9,4.3-2.4s1.8-3.7,1.8-5.7-.6-4.3-1.8-5.7-2.6-2.4-4.3-2.4-1.4,0-2.1,0h-5.7c-2.8,0-5.6,0-8.3,0h-10.2c-3.7,0-7.5,0-11.2,0h-11.3c-3.5,0-7,0-10.5,0h-8.9c-2.1,0-4.3,0-6.4,0s-2,0-3,0,0,0-.1,0c-1.5,0-3.2.9-4.3,2.4S0,43.4,0,45.4s.6,4.3,1.8,5.7,2.6,2.4,4.3,2.4h0Z"/>
  </g>
  <g>
    <line class="st0" x1="6" y1="18.6" x2="83.8" y2="18.6"/>
    <path class="st0" d="M6,26.8c.7,0,1.4,0,2.1,0h5.7c2.8,0,5.6,0,8.3,0h10.2c3.7,0,7.5,0,11.2,0h11.3c3.5,0,7,0,10.5,0h8.9c2.1,0,4.3,0,6.4,0s2,0,3,0,0,0,.1,0c1.5,0,3.2-.9,4.3-2.4s1.8-3.7,1.8-5.7-.6-4.3-1.8-5.7-2.6-2.4-4.3-2.4-1.4,0-2.1,0h-5.7c-2.8,0-5.6,0-8.3,0h-10.2c-3.7,0-7.5,0-11.2,0h-11.3c-3.5,0-7,0-10.5,0h-8.9c-2.1,0-4.3,0-6.4,0s-2,0-3,0,0,0-.1,0c-1.5,0-3.2.9-4.3,2.4S0,16.6,0,18.6s.6,4.3,1.8,5.7,2.6,2.4,4.3,2.4h0Z"/>
  </g>
  <g>
    <line class="st0" x1="6" y1="72.1" x2="83.8" y2="72.1"/>
    <path class="st0" d="M6,80.2c.7,0,1.4,0,2.1,0h5.7c2.8,0,5.6,0,8.3,0h10.2c3.7,0,7.5,0,11.2,0h11.3c3.5,0,7,0,10.5,0h8.9c2.1,0,4.3,0,6.4,0s2,0,3,0,0,0,.1,0c1.5,0,3.2-.9,4.3-2.4s1.8-3.7,1.8-5.7-.6-4.3-1.8-5.7-2.6-2.4-4.3-2.4-1.4,0-2.1,0h-5.7c-2.8,0-5.6,0-8.3,0h-10.2c-3.7,0-7.5,0-11.2,0s-7.5,0-11.3,0h-10.5c-3,0-5.9,0-8.9,0h-6.4c-1,0-2,0-3,0s0,0-.1,0c-1.5,0-3.2.9-4.3,2.4S0,70.1,0,72.1s.6,4.3,1.8,5.7,2.6,2.4,4.3,2.4h0Z"/>
  </g>
</svg>