<?xml version="1.0" encoding="UTF-8"?>
<svg id="Laag_1" xmlns="http://www.w3.org/2000/svg" version="1.1" viewBox="0 0 599.4 600.8">
  <!-- Generator: Adobe Illustrator 29.7.1, SVG Export Plug-In . SVG Version: 2.1.1 Build 8)  -->
  <defs>
    <style>
      .st0 {
        fill: #fff;
      }
    </style>
  </defs>
  <g>
    <line class="st0" x1="40.2" y1="303.4" x2="557.8" y2="303.4"/>
    <path class="st0" d="M40.2,357.4c4.6,0,9.2,0,13.9,0,12.6,0,25.1,0,37.7,0,18.5,0,37,0,55.5,0,22.7,0,45.3,0,68,0,24.8,0,49.7,0,74.5,0,25.1,0,50.1,0,75.2,0h70.1c19.7,0,39.3,0,59,0,14.2,0,28.4,0,42.7,0s13.5,0,20.2,0c.3,0,.6,0,.9,0,10.3,0,21.1-6,28.4-15.8,7-9.4,12.2-24.7,11.8-38.2-.4-14-3.9-28.5-11.8-38.2-7.9-9.7-17.5-15.8-28.4-15.8s-9.2,0-13.9,0c-12.6,0-25.1,0-37.7,0-18.5,0-37,0-55.5,0-22.7,0-45.3,0-68,0-24.8,0-49.7,0-74.5,0-25.1,0-50.1,0-75.2,0-23.4,0-46.7,0-70.1,0-19.7,0-39.3,0-59,0h-42.7c-6.7,0-13.5,0-20.2,0s-.6,0-.9,0c-10.3,0-21.1,6-28.4,15.8C4.8,274.6-.4,290,0,303.4s3.9,28.5,11.8,38.2c7.9,9.7,17.5,15.8,28.4,15.8h0Z"/>
  </g>
  <g>
    <line class="st0" x1="40.2" y1="125.1" x2="557.8" y2="125.1"/>
    <path class="st0" d="M40.2,179.1c4.6,0,9.2,0,13.9,0,12.6,0,25.1,0,37.7,0,18.5,0,37,0,55.5,0,22.7,0,45.3,0,68,0,24.8,0,49.7,0,74.5,0,25.1,0,50.1,0,75.2,0h70.1c19.7,0,39.3,0,59,0,14.2,0,28.4,0,42.7,0s13.5,0,20.2,0c.3,0,.6,0,.9,0,10.3,0,21.1-6,28.4-15.8,7-9.4,12.2-24.7,11.8-38.2-.4-14-3.9-28.5-11.8-38.2-7.9-9.7-17.5-15.8-28.4-15.8s-9.2,0-13.9,0c-12.6,0-25.1,0-37.7,0-18.5,0-37,0-55.5,0-22.7,0-45.3,0-68,0-24.8,0-49.7,0-74.5,0-25.1,0-50.1,0-75.2,0-23.4,0-46.7,0-70.1,0-19.7,0-39.3,0-59,0h-42.7c-6.7,0-13.5,0-20.2,0s-.6,0-.9,0c-10.3,0-21.1,6-28.4,15.8C4.8,96.3-.4,111.7,0,125.1s3.9,28.5,11.8,38.2c7.9,9.7,17.5,15.8,28.4,15.8h0Z"/>
  </g>
  <g>
    <line class="st0" x1="40.2" y1="480.7" x2="557.8" y2="480.7"/>
    <path class="st0" d="M40.2,534.7c4.6,0,9.2,0,13.9,0,12.6,0,25.1,0,37.7,0,18.5,0,37,0,55.5,0,22.7,0,45.3,0,68,0,24.8,0,49.7,0,74.5,0,25.1,0,50.1,0,75.2,0h70.1c19.7,0,39.3,0,59,0,14.2,0,28.4,0,42.7,0s13.5,0,20.2,0c.3,0,.6,0,.9,0,10.3,0,21.1-6,28.4-15.8,7-9.4,12.2-24.7,11.8-38.2-.4-14-3.9-28.5-11.8-38.2-7.9-9.7-17.5-15.8-28.4-15.8s-9.2,0-13.9,0c-12.6,0-25.1,0-37.7,0-18.5,0-37,0-55.5,0-22.7,0-45.3,0-68,0-24.8,0-49.7,0-74.5,0-25.1,0-50.1,0-75.2,0-23.4,0-46.7,0-70.1,0-19.7,0-39.3,0-59,0h-42.7c-6.7,0-13.5,0-20.2,0s-.6,0-.9,0c-10.3,0-21.1,6-28.4,15.8C4.8,451.9-.4,467.2,0,480.7s3.9,28.5,11.8,38.2c7.9,9.7,17.5,15.8,28.4,15.8h0Z"/>
  </g>
</svg>