<?xml version="1.0" encoding="UTF-8"?>
<svg id="Laag_1" xmlns="http://www.w3.org/2000/svg" version="1.1" viewBox="0 0 1536 202">
  <!-- Generator: Adobe Illustrator 29.7.1, SVG Export Plug-In . SVG Version: 2.1.1 Build 8)  -->
  <defs>
    <style>
      .st0 {
        fill: #fff;
      }
    </style>
  </defs>
  <g id="ymZ21D.tif">
    <g>
      <path class="st0" d="M1313.6,48.3c-16.1-2.9-16.8-36.6,1.5-38.5l142.6.2c13.5,4.1,15.3,25,6.6,34.1s-5.4,4.2-6.4,4.2h-52.1v127.5c0,5-5.9,10.6-10.2,12.5-8.3,3.8-21.1,2.4-27.1-5.1-.7-.9-2.7-4.3-2.7-5.1V49.5l-1.2-1.2h-51Z"/>
      <path class="st0" d="M270.5,151.1h129.8c3.1,0,8.1,3.1,10.2,5.5,6.9,7.6,7.1,22.2-.4,29.5s-6.2,4.3-6.7,4.3h-172.9v-110.6h73.3c.3,0,4.1,2.7,4.7,3.1,8.2,6.4,9.7,19.6,3.9,28.2s-7,7.1-9.4,7.1h-31.4l-1.2,1.2v31.8Z"/>
      <path class="st0" d="M203.5,60.1l.8,1.6-70.6,128.6c-1.3.3-2.6-2.9-3.1-3.9-28.4-50.6-54.5-102.6-82.7-153.4-3.7-19.8,21.6-30.7,34.8-16.8l24.4,43.9h96.4Z"/>
      <path class="st0" d="M726.5,138c-8.2-7.7-24.5-19.7-30.2-28.3-9.1-13.7.2-21.6,9.3-30.5,23.4-22.9,48.8-43.7,72.2-66.6,17.9-11.8,39.2,14.6,25.4,29.4-15.8,16.9-37.3,33.5-54.5,49.8-1.2,1.1-7.2,6.7-7,7.7,12.7,12.2,25.4,24.3,38.3,36.2,10,9.2,27.5,21.9,35.3,32.2,12.2,16.1-11,37.1-27.2,27.2-21-18.6-41.3-38.1-61.7-57.1Z"/>
      <path class="st0" d="M1028.7,190.3c-28-25-54.2-52.2-81.1-78.5-3.7-3.6-10.4-7.3-11.4-12.5h53.3V22.8c0-.3,2.6-4.8,3.1-5.5,7.8-10.3,25.8-10.2,33.3.4.5.6,2.8,4.8,2.8,5.1v167.5Z"/>
      <path class="st0" d="M933.8,100.1h-54.1v75.7c0,.5-2,4.5-2.5,5.3-7.2,12.5-28.5,12.4-34.8-1-.4-.9-1.9-4.6-1.9-5.1V9.9l93.3,90.2Z"/>
      <path class="st0" d="M466.3,10.1c36.1,1.8,74.5-7.4,106.8,12,25.1,15.1,45.9,43.1,43.2,73.7s-36,21.7-39.2,1.5c-1.7-10.7,0-13.3-6.5-23.3-24.4-38.1-65.2-22.1-103-25.6-18.6-1.7-19.5-33.8-1.4-38.3Z"/>
      <path class="st0" d="M1142.9,10.1c30.1,2,66.2-5.6,94.5,5.5,30.4,11.9,61.6,47.9,56.2,82.5-2.6,16.4-30.5,20-37.7,3.3-3.3-7.5-.6-15.4-5.8-24.8-22.7-40.9-67.3-24.8-105-28.3-18.4-1.7-19.4-32.7-2.1-38.3Z"/>
      <path class="st0" d="M243.6,10.1h158.1c18.3,4.2,19,34.5,0,38.3h-158.3c-17.8-3.6-17.6-35.3.1-38.3Z"/>
      <path class="st0" d="M534.3,99.3c18.6,16.4,36.3,33.7,54.5,50.6,9.2,8.6,20.7,13.3,13.7,28.6s-21,15.5-31.4,7.8c-26.9-26.8-56.2-51-83.5-77.3-2.2-2.1-5.7-5.2-7.4-7.5-.6-.8-1.5-1-1.2-2.4h55.3Z"/>
      <path class="st0" d="M1092.2,130.7h-40V26c0-4.8,5.7-11.4,9.8-13.7,8.5-4.9,21.8-2.8,27.4,5.6s2.8,5.6,2.8,6.6v106.3Z"/>
      <path class="st0" d="M652.9,85.4c9.6-1.3,21.6,2.3,23.7,12.7v80c-5.6,16.7-34.7,16.6-39.2-.7v-80c1.8-6.7,9-11.1,15.5-12Z"/>
      <path class="st0" d="M1128.7,98.2c9.6-9.6,28.3-7.7,34.7,4.8v82.1c-5.3,16.6-33.6,16.8-38.8-.1l-.2-79c.5-4.1,1.7-5.1,4.4-7.8Z"/>
      <path class="st0" d="M473.6,175c-3.1,19.6-38,21.6-40-2.3-1.9-22.1,1.5-46.7,0-69.1l.8-4.3h38l1.2,1.2v74.5Z"/>
      <path class="st0" d="M1092.2,146.4v30.2c0,3.1-5,8.7-7.6,10.5-9.2,6.1-25.2,4-30.2-6.4s-2.2-6-2.2-6.4v-26.7l1.2-1.2h38.8Z"/>
    </g>
  </g>
</svg>